<mxfile host="app.diagrams.net" modified="2023-11-02T22:24:27.679Z" agent="Mozilla/5.0 (Windows NT 10.0; Win64; x64) AppleWebKit/537.36 (KHTML, like Gecko) Chrome/117.0.0.0 Safari/537.36 Edg/117.0.2045.60" version="22.0.8" etag="8K6g4_zvvlqNR9YG8G8J" type="github">
  <diagram name="StrÃ¡nka-1" id="bEfvXbDcPR-JKaHOEIba">
    <mxGraphModel>
      <root>
        <mxCell id="0" />
        <mxCell id="1" parent="0" />
      </root>
    </mxGraphModel>
  </diagram>
</mxfile>
